The Fourth State 2012 BRRiP x264 AC3-OFFLiNE

iMDB  http://www.imdb.com/title/tt1709122

Source  1080p CHD  -  MANY THANKX

Media Info
The Fourth State 2012 BRRiP x264 AC3-OFFLiNE.mp4
Format                                   : MPEG-4
Format profile                           : Base Media
Codec ID                                 : isom
File size                                : 2.00 GiB
Duration                                 : 1h 57mn
Overall bit rate mode                    : Variable
Overall bit rate                         : 2 442 Kbps
Encoded date                             : UTC 2013-03-30 04:44:47
Tagged date                              : UTC 2013-03-30 04:44:47

Video
ID                                       : 1
Format                                   : AVC
Format/Info                              : Advanced Video Codec
Format profile                           : High@L4.1
Format settings, CABAC                   : Yes
Format settings, ReFrames                : 3 frames
Codec ID                                 : avc1
Codec ID/Info                            : Advanced Video Coding
Duration                                 : 1h 57mn
Bit rate mode                            : Variable
Bit rate                                 : 2 058 Kbps
Maximum bit rate                         : 40.0 Mbps
Width                                    : 720 pixels
Height                                   : 304 pixels
Display aspect ratio                     : 2.35:1
Frame rate mode                          : Constant
Frame rate                               : 24.000 fps
Color space                              : YUV
Chroma subsampling                       : 4:2:0
Bit depth                                : 8 bits
Scan type                                : Progressive
Bits/(Pixel*Frame)                       : 0.392
Stream size                              : 1.68 GiB (84%)
Title                                    : The Fourth State 2012 BRRiP x264 AC3-OFFLiNE
Writing library                          : x264 core 130 r2273 b3065e6

Audio
ID                                       : 2
Format                                   : AC-3
Format/Info                              : Audio Coding 3
Mode extension                           : CM (complete main)
Format settings, Endianness              : Big
Codec ID                                 : ac-3
Duration                                 : 1h 57mn
Bit rate mode                            : Constant
Bit rate                                 : 384 Kbps
Channel(s)                               : 6 channels
Channel positions                        : Front: L C R, Side: L R, LFE
Sampling rate                            : 48.0 KHz
Bit depth                                : 16 bits
Compression mode                         : Lossy
Stream size                              : 322 MiB (16%)
Title                                    : 5.1
Language                                 : English

Screens: 
http://i.imgur.com/0QfjoeA.png 
http://i.imgur.com/x0KNQwx.png 
http://i.imgur.com/lXkbDZ9.png 
http://i.imgur.com/EXRhEJs.png